<mxfile host="app.diagrams.net" modified="2020-10-24T13:48:34.886Z" agent="5.0 (Windows NT 10.0; Win64; x64) AppleWebKit/537.36 (KHTML, like Gecko) Chrome/86.0.4240.111 Safari/537.36 Edg/86.0.622.51" etag="tf1pFoOOm8dmsXosZXpy" version="13.8.1" type="github" pages="4">
  <diagram id="c8kAMgYa_nflIfkOADPL" name="Page-1">
    <mxGraphModel dx="1038" dy="548" grid="1" gridSize="10" guides="1" tooltips="1" connect="1" arrows="1" fold="1" page="1" pageScale="1" pageWidth="827" pageHeight="1169" math="0" shadow="0">
      <root>
        <mxCell id="0" />
        <mxCell id="1" parent="0" />
        <mxCell id="ORkDCY1aU5_WSUhduduk-4" value="" style="rounded=0;whiteSpace=wrap;html=1;" parent="1" vertex="1">
          <mxGeometry x="354" y="140" width="120" height="320" as="geometry" />
        </mxCell>
        <mxCell id="ORkDCY1aU5_WSUhduduk-5" value="&lt;h2&gt;&lt;font face=&quot;Courier New&quot;&gt;共享内存区域&lt;/font&gt;&lt;/h2&gt;" style="shape=document;whiteSpace=wrap;html=1;boundedLbl=1;fillColor=#dae8fc;strokeColor=#6c8ebf;" parent="1" vertex="1">
          <mxGeometry x="354" y="140" width="120" height="80" as="geometry" />
        </mxCell>
        <mxCell id="ORkDCY1aU5_WSUhduduk-6" value="&lt;h2&gt;&lt;font face=&quot;Courier New&quot;&gt;进程1&lt;/font&gt;&lt;/h2&gt;" style="shape=process;whiteSpace=wrap;html=1;backgroundOutline=1;fillColor=#fff2cc;strokeColor=#d6b656;" parent="1" vertex="1">
          <mxGeometry x="170" y="150" width="120" height="60" as="geometry" />
        </mxCell>
        <mxCell id="ORkDCY1aU5_WSUhduduk-7" value="&lt;h2&gt;&lt;font face=&quot;Courier New&quot;&gt;进程2&lt;/font&gt;&lt;/h2&gt;" style="shape=process;whiteSpace=wrap;html=1;backgroundOutline=1;fillColor=#ffe6cc;strokeColor=#d79b00;" parent="1" vertex="1">
          <mxGeometry x="170" y="240" width="120" height="60" as="geometry" />
        </mxCell>
        <mxCell id="ORkDCY1aU5_WSUhduduk-8" value="&lt;h2&gt;&lt;font face=&quot;Courier New&quot;&gt;进程1内存&lt;/font&gt;&lt;/h2&gt;" style="shape=document;whiteSpace=wrap;html=1;boundedLbl=1;fillColor=#fff2cc;strokeColor=#d6b656;" parent="1" vertex="1">
          <mxGeometry x="354" y="240" width="120" height="80" as="geometry" />
        </mxCell>
        <mxCell id="ORkDCY1aU5_WSUhduduk-9" value="&lt;h2&gt;&lt;font face=&quot;Courier New&quot;&gt;进程2内存&lt;/font&gt;&lt;/h2&gt;" style="shape=document;whiteSpace=wrap;html=1;boundedLbl=1;fillColor=#ffe6cc;strokeColor=#d79b00;" parent="1" vertex="1">
          <mxGeometry x="354" y="350" width="120" height="80" as="geometry" />
        </mxCell>
        <mxCell id="ORkDCY1aU5_WSUhduduk-15" value="" style="endArrow=classic;startArrow=classic;html=1;entryX=0;entryY=0.5;entryDx=0;entryDy=0;" parent="1" target="ORkDCY1aU5_WSUhduduk-5" edge="1">
          <mxGeometry width="50" height="50" relative="1" as="geometry">
            <mxPoint x="290" y="190" as="sourcePoint" />
            <mxPoint x="340" y="140" as="targetPoint" />
          </mxGeometry>
        </mxCell>
        <mxCell id="ORkDCY1aU5_WSUhduduk-16" value="" style="endArrow=classic;startArrow=classic;html=1;entryX=0;entryY=0.5;entryDx=0;entryDy=0;exitX=1;exitY=0.5;exitDx=0;exitDy=0;" parent="1" source="ORkDCY1aU5_WSUhduduk-7" edge="1">
          <mxGeometry width="50" height="50" relative="1" as="geometry">
            <mxPoint x="290" y="210" as="sourcePoint" />
            <mxPoint x="354" y="200" as="targetPoint" />
          </mxGeometry>
        </mxCell>
      </root>
    </mxGraphModel>
  </diagram>
  <diagram id="rOM_LWQnrjIBYfWS73EP" name="Page-2">
    <mxGraphModel dx="1038" dy="548" grid="1" gridSize="10" guides="1" tooltips="1" connect="1" arrows="1" fold="1" page="1" pageScale="1" pageWidth="827" pageHeight="1169" math="0" shadow="0">
      <root>
        <mxCell id="gq1B6Gad_nhqT-rc4CSO-0" />
        <mxCell id="gq1B6Gad_nhqT-rc4CSO-1" parent="gq1B6Gad_nhqT-rc4CSO-0" />
        <mxCell id="gq1B6Gad_nhqT-rc4CSO-19" value="" style="edgeStyle=orthogonalEdgeStyle;rounded=0;orthogonalLoop=1;jettySize=auto;html=1;fillColor=#dae8fc;strokeColor=#6c8ebf;" edge="1" parent="gq1B6Gad_nhqT-rc4CSO-1" source="gq1B6Gad_nhqT-rc4CSO-2" target="gq1B6Gad_nhqT-rc4CSO-18">
          <mxGeometry relative="1" as="geometry" />
        </mxCell>
        <mxCell id="gq1B6Gad_nhqT-rc4CSO-2" value="" style="whiteSpace=wrap;html=1;aspect=fixed;fillColor=#dae8fc;strokeColor=#6c8ebf;" vertex="1" parent="gq1B6Gad_nhqT-rc4CSO-1">
          <mxGeometry x="150" y="280" width="50" height="50" as="geometry" />
        </mxCell>
        <mxCell id="gq1B6Gad_nhqT-rc4CSO-21" value="" style="edgeStyle=orthogonalEdgeStyle;rounded=0;orthogonalLoop=1;jettySize=auto;html=1;fillColor=#dae8fc;strokeColor=#6c8ebf;" edge="1" parent="gq1B6Gad_nhqT-rc4CSO-1" source="gq1B6Gad_nhqT-rc4CSO-18" target="gq1B6Gad_nhqT-rc4CSO-20">
          <mxGeometry relative="1" as="geometry" />
        </mxCell>
        <mxCell id="gq1B6Gad_nhqT-rc4CSO-18" value="" style="whiteSpace=wrap;html=1;aspect=fixed;fillColor=#dae8fc;strokeColor=#6c8ebf;" vertex="1" parent="gq1B6Gad_nhqT-rc4CSO-1">
          <mxGeometry x="280" y="280" width="50" height="50" as="geometry" />
        </mxCell>
        <mxCell id="gq1B6Gad_nhqT-rc4CSO-23" value="" style="edgeStyle=orthogonalEdgeStyle;rounded=0;orthogonalLoop=1;jettySize=auto;html=1;fillColor=#dae8fc;strokeColor=#6c8ebf;" edge="1" parent="gq1B6Gad_nhqT-rc4CSO-1" source="gq1B6Gad_nhqT-rc4CSO-20" target="gq1B6Gad_nhqT-rc4CSO-22">
          <mxGeometry relative="1" as="geometry" />
        </mxCell>
        <mxCell id="gq1B6Gad_nhqT-rc4CSO-20" value="" style="whiteSpace=wrap;html=1;aspect=fixed;fillColor=#dae8fc;strokeColor=#6c8ebf;" vertex="1" parent="gq1B6Gad_nhqT-rc4CSO-1">
          <mxGeometry x="410" y="280" width="50" height="50" as="geometry" />
        </mxCell>
        <mxCell id="gq1B6Gad_nhqT-rc4CSO-22" value="" style="whiteSpace=wrap;html=1;aspect=fixed;fillColor=#dae8fc;strokeColor=#6c8ebf;" vertex="1" parent="gq1B6Gad_nhqT-rc4CSO-1">
          <mxGeometry x="540" y="280" width="50" height="50" as="geometry" />
        </mxCell>
        <mxCell id="gq1B6Gad_nhqT-rc4CSO-24" value="&lt;h2&gt;&lt;font face=&quot;Courier New&quot;&gt;进程2&lt;/font&gt;&lt;/h2&gt;" style="shape=process;whiteSpace=wrap;html=1;backgroundOutline=1;fillColor=#fff2cc;strokeColor=#d6b656;" vertex="1" parent="gq1B6Gad_nhqT-rc4CSO-1">
          <mxGeometry x="560" y="170" width="120" height="60" as="geometry" />
        </mxCell>
        <mxCell id="gq1B6Gad_nhqT-rc4CSO-25" value="&lt;h2&gt;&lt;font face=&quot;Courier New&quot;&gt;进程1&lt;/font&gt;&lt;/h2&gt;" style="shape=process;whiteSpace=wrap;html=1;backgroundOutline=1;fillColor=#ffe6cc;strokeColor=#d79b00;" vertex="1" parent="gq1B6Gad_nhqT-rc4CSO-1">
          <mxGeometry x="115" y="170" width="120" height="60" as="geometry" />
        </mxCell>
        <mxCell id="gq1B6Gad_nhqT-rc4CSO-26" value="" style="endArrow=classic;html=1;exitX=0.372;exitY=1.057;exitDx=0;exitDy=0;exitPerimeter=0;entryX=0.5;entryY=0;entryDx=0;entryDy=0;" edge="1" parent="gq1B6Gad_nhqT-rc4CSO-1" source="gq1B6Gad_nhqT-rc4CSO-25" target="gq1B6Gad_nhqT-rc4CSO-2">
          <mxGeometry width="50" height="50" relative="1" as="geometry">
            <mxPoint x="390" y="300" as="sourcePoint" />
            <mxPoint x="440" y="250" as="targetPoint" />
          </mxGeometry>
        </mxCell>
        <mxCell id="gq1B6Gad_nhqT-rc4CSO-27" value="&lt;b&gt;发送原语&lt;/b&gt;" style="text;html=1;align=center;verticalAlign=middle;resizable=0;points=[];autosize=1;" vertex="1" parent="gq1B6Gad_nhqT-rc4CSO-1">
          <mxGeometry x="165" y="240" width="70" height="20" as="geometry" />
        </mxCell>
        <mxCell id="gq1B6Gad_nhqT-rc4CSO-28" value="" style="endArrow=classic;html=1;exitX=0.5;exitY=0;exitDx=0;exitDy=0;entryX=0.187;entryY=1.003;entryDx=0;entryDy=0;entryPerimeter=0;" edge="1" parent="gq1B6Gad_nhqT-rc4CSO-1" source="gq1B6Gad_nhqT-rc4CSO-22" target="gq1B6Gad_nhqT-rc4CSO-24">
          <mxGeometry width="50" height="50" relative="1" as="geometry">
            <mxPoint x="390" y="300" as="sourcePoint" />
            <mxPoint x="440" y="250" as="targetPoint" />
          </mxGeometry>
        </mxCell>
        <mxCell id="gq1B6Gad_nhqT-rc4CSO-29" value="&lt;b&gt;接收原语&lt;/b&gt;" style="text;html=1;align=center;verticalAlign=middle;resizable=0;points=[];autosize=1;" vertex="1" parent="gq1B6Gad_nhqT-rc4CSO-1">
          <mxGeometry x="570" y="250" width="70" height="20" as="geometry" />
        </mxCell>
        <mxCell id="gq1B6Gad_nhqT-rc4CSO-30" value="&lt;h2&gt;消息缓冲队列&lt;/h2&gt;" style="text;html=1;align=center;verticalAlign=middle;resizable=0;points=[];autosize=1;" vertex="1" parent="gq1B6Gad_nhqT-rc4CSO-1">
          <mxGeometry x="310" y="350" width="120" height="50" as="geometry" />
        </mxCell>
        <mxCell id="gq1B6Gad_nhqT-rc4CSO-31" value="消息头" style="rounded=0;whiteSpace=wrap;html=1;fillColor=#f8cecc;strokeColor=#b85450;" vertex="1" parent="gq1B6Gad_nhqT-rc4CSO-1">
          <mxGeometry x="150" y="280" width="50" height="20" as="geometry" />
        </mxCell>
        <mxCell id="gq1B6Gad_nhqT-rc4CSO-33" value="消息体" style="text;html=1;align=center;verticalAlign=middle;resizable=0;points=[];autosize=1;" vertex="1" parent="gq1B6Gad_nhqT-rc4CSO-1">
          <mxGeometry x="150" y="300" width="50" height="20" as="geometry" />
        </mxCell>
      </root>
    </mxGraphModel>
  </diagram>
  <diagram id="Vh9alggUONxLJAgFzmre" name="Page-3">
    <mxGraphModel dx="1038" dy="548" grid="1" gridSize="10" guides="1" tooltips="1" connect="1" arrows="1" fold="1" page="1" pageScale="1" pageWidth="827" pageHeight="1169" math="0" shadow="0">
      <root>
        <mxCell id="-bDRQzhSHwNeOHsVku2S-0" />
        <mxCell id="-bDRQzhSHwNeOHsVku2S-1" parent="-bDRQzhSHwNeOHsVku2S-0" />
        <mxCell id="-bDRQzhSHwNeOHsVku2S-9" value="&lt;h2&gt;&lt;font face=&quot;Courier New&quot;&gt;进程2&lt;/font&gt;&lt;/h2&gt;" style="shape=process;whiteSpace=wrap;html=1;backgroundOutline=1;fillColor=#fff2cc;strokeColor=#d6b656;" parent="-bDRQzhSHwNeOHsVku2S-1" vertex="1">
          <mxGeometry x="405" y="170" width="120" height="60" as="geometry" />
        </mxCell>
        <mxCell id="-bDRQzhSHwNeOHsVku2S-10" value="&lt;h2&gt;&lt;font face=&quot;Courier New&quot;&gt;进程1&lt;/font&gt;&lt;/h2&gt;" style="shape=process;whiteSpace=wrap;html=1;backgroundOutline=1;fillColor=#ffe6cc;strokeColor=#d79b00;" parent="-bDRQzhSHwNeOHsVku2S-1" vertex="1">
          <mxGeometry x="115" y="170" width="120" height="60" as="geometry" />
        </mxCell>
        <mxCell id="-bDRQzhSHwNeOHsVku2S-11" value="" style="endArrow=classic;html=1;exitX=0.5;exitY=1;exitDx=0;exitDy=0;entryX=0.25;entryY=0;entryDx=0;entryDy=0;" parent="-bDRQzhSHwNeOHsVku2S-1" source="-bDRQzhSHwNeOHsVku2S-10" target="hllnYfiF6jv9KUFQobOS-0" edge="1">
          <mxGeometry width="50" height="50" relative="1" as="geometry">
            <mxPoint x="390" y="300" as="sourcePoint" />
            <mxPoint x="175" y="280" as="targetPoint" />
          </mxGeometry>
        </mxCell>
        <mxCell id="-bDRQzhSHwNeOHsVku2S-12" value="&lt;b&gt;发送&lt;/b&gt;" style="text;html=1;align=center;verticalAlign=middle;resizable=0;points=[];autosize=1;" parent="-bDRQzhSHwNeOHsVku2S-1" vertex="1">
          <mxGeometry x="150" y="250" width="40" height="20" as="geometry" />
        </mxCell>
        <mxCell id="-bDRQzhSHwNeOHsVku2S-13" value="" style="endArrow=classic;html=1;exitX=0.75;exitY=0;exitDx=0;exitDy=0;entryX=0.187;entryY=1.003;entryDx=0;entryDy=0;entryPerimeter=0;" parent="-bDRQzhSHwNeOHsVku2S-1" source="hllnYfiF6jv9KUFQobOS-0" target="-bDRQzhSHwNeOHsVku2S-9" edge="1">
          <mxGeometry width="50" height="50" relative="1" as="geometry">
            <mxPoint x="345" y="280" as="sourcePoint" />
            <mxPoint x="220" y="250" as="targetPoint" />
          </mxGeometry>
        </mxCell>
        <mxCell id="-bDRQzhSHwNeOHsVku2S-14" value="&lt;b&gt;接收&lt;/b&gt;" style="text;html=1;align=center;verticalAlign=middle;resizable=0;points=[];autosize=1;" parent="-bDRQzhSHwNeOHsVku2S-1" vertex="1">
          <mxGeometry x="390" y="260" width="40" height="20" as="geometry" />
        </mxCell>
        <mxCell id="hllnYfiF6jv9KUFQobOS-0" value="&lt;h2&gt;&lt;b&gt;&lt;font face=&quot;Comic Sans MS&quot;&gt;交换机&lt;/font&gt;&lt;/b&gt;&lt;/h2&gt;" style="rounded=1;whiteSpace=wrap;html=1;fillColor=#dae8fc;strokeColor=#6c8ebf;" parent="-bDRQzhSHwNeOHsVku2S-1" vertex="1">
          <mxGeometry x="250" y="290" width="120" height="60" as="geometry" />
        </mxCell>
      </root>
    </mxGraphModel>
  </diagram>
  <diagram id="KeWKH5qyhYtQa5KCbWA9" name="Page-4">
    <mxGraphModel dx="716" dy="378" grid="1" gridSize="10" guides="1" tooltips="1" connect="1" arrows="1" fold="1" page="1" pageScale="1" pageWidth="827" pageHeight="1169" math="0" shadow="0">
      <root>
        <mxCell id="Er5Ku43OcecF_kd8UWUg-0" />
        <mxCell id="Er5Ku43OcecF_kd8UWUg-1" parent="Er5Ku43OcecF_kd8UWUg-0" />
        <mxCell id="Er5Ku43OcecF_kd8UWUg-4" value="&lt;h2&gt;&lt;b&gt;创建态&lt;/b&gt;&lt;/h2&gt;" style="ellipse;whiteSpace=wrap;html=1;aspect=fixed;gradientDirection=west;strokeWidth=3;fillColor=#ffe6cc;strokeColor=#d79b00;" vertex="1" parent="Er5Ku43OcecF_kd8UWUg-1">
          <mxGeometry x="130" y="130" width="80" height="80" as="geometry" />
        </mxCell>
        <mxCell id="Er5Ku43OcecF_kd8UWUg-5" value="&lt;h2&gt;&lt;b&gt;就绪态&lt;/b&gt;&lt;/h2&gt;" style="ellipse;whiteSpace=wrap;html=1;aspect=fixed;gradientDirection=west;strokeWidth=3;fillColor=#dae8fc;strokeColor=#6c8ebf;" vertex="1" parent="Er5Ku43OcecF_kd8UWUg-1">
          <mxGeometry x="290" y="130" width="80" height="80" as="geometry" />
        </mxCell>
        <mxCell id="Er5Ku43OcecF_kd8UWUg-7" value="&lt;h2&gt;&lt;b&gt;运行态&lt;/b&gt;&lt;/h2&gt;" style="ellipse;whiteSpace=wrap;html=1;aspect=fixed;gradientDirection=west;strokeWidth=3;fillColor=#dae8fc;strokeColor=#6c8ebf;" vertex="1" parent="Er5Ku43OcecF_kd8UWUg-1">
          <mxGeometry x="450" y="130" width="80" height="80" as="geometry" />
        </mxCell>
        <mxCell id="Er5Ku43OcecF_kd8UWUg-9" value="&lt;h2&gt;&lt;b&gt;终止态&lt;/b&gt;&lt;/h2&gt;" style="ellipse;whiteSpace=wrap;html=1;aspect=fixed;gradientDirection=west;strokeWidth=3;fillColor=#f8cecc;strokeColor=#b85450;" vertex="1" parent="Er5Ku43OcecF_kd8UWUg-1">
          <mxGeometry x="610" y="130" width="80" height="80" as="geometry" />
        </mxCell>
        <mxCell id="Er5Ku43OcecF_kd8UWUg-12" value="&lt;h2 style=&quot;color: rgb(0 , 0 , 0)&quot;&gt;&lt;b&gt;就绪挂起态&lt;/b&gt;&lt;/h2&gt;" style="ellipse;whiteSpace=wrap;html=1;aspect=fixed;gradientDirection=west;strokeWidth=3;fillColor=#f5f5f5;strokeColor=#666666;fontColor=#333333;" vertex="1" parent="Er5Ku43OcecF_kd8UWUg-1">
          <mxGeometry x="210" y="240" width="80" height="80" as="geometry" />
        </mxCell>
        <mxCell id="Er5Ku43OcecF_kd8UWUg-13" value="&lt;h2&gt;&lt;b&gt;阻塞态&lt;/b&gt;&lt;/h2&gt;" style="ellipse;whiteSpace=wrap;html=1;aspect=fixed;gradientDirection=west;strokeWidth=3;fillColor=#dae8fc;strokeColor=#6c8ebf;" vertex="1" parent="Er5Ku43OcecF_kd8UWUg-1">
          <mxGeometry x="470" y="280" width="80" height="80" as="geometry" />
        </mxCell>
        <mxCell id="Er5Ku43OcecF_kd8UWUg-14" value="&lt;br&gt;&lt;br&gt;&lt;h2 style=&quot;color: rgb(0 , 0 , 0) ; font-family: &amp;#34;helvetica&amp;#34;&quot;&gt;&lt;b&gt;阻塞挂起态&lt;/b&gt;&lt;/h2&gt;&lt;div&gt;&lt;b&gt;&lt;br&gt;&lt;/b&gt;&lt;/div&gt;" style="ellipse;whiteSpace=wrap;html=1;aspect=fixed;gradientDirection=west;strokeWidth=3;fillColor=#f5f5f5;strokeColor=#666666;fontColor=#333333;" vertex="1" parent="Er5Ku43OcecF_kd8UWUg-1">
          <mxGeometry x="300" y="340" width="80" height="80" as="geometry" />
        </mxCell>
        <mxCell id="Er5Ku43OcecF_kd8UWUg-17" value="" style="endArrow=classic;html=1;" edge="1" parent="Er5Ku43OcecF_kd8UWUg-1">
          <mxGeometry relative="1" as="geometry">
            <mxPoint x="370" y="169.5" as="sourcePoint" />
            <mxPoint x="450" y="170" as="targetPoint" />
          </mxGeometry>
        </mxCell>
        <mxCell id="Er5Ku43OcecF_kd8UWUg-19" value="" style="endArrow=classic;html=1;" edge="1" parent="Er5Ku43OcecF_kd8UWUg-1">
          <mxGeometry relative="1" as="geometry">
            <mxPoint x="530" y="169.5" as="sourcePoint" />
            <mxPoint x="610" y="170" as="targetPoint" />
          </mxGeometry>
        </mxCell>
        <mxCell id="Er5Ku43OcecF_kd8UWUg-21" value="" style="endArrow=classic;html=1;exitX=1;exitY=1;exitDx=0;exitDy=0;" edge="1" parent="Er5Ku43OcecF_kd8UWUg-1" source="Er5Ku43OcecF_kd8UWUg-4" target="Er5Ku43OcecF_kd8UWUg-12">
          <mxGeometry relative="1" as="geometry">
            <mxPoint x="240" y="199.5" as="sourcePoint" />
            <mxPoint x="320" y="200" as="targetPoint" />
          </mxGeometry>
        </mxCell>
        <mxCell id="Er5Ku43OcecF_kd8UWUg-23" value="" style="endArrow=classic;html=1;exitX=0;exitY=0;exitDx=0;exitDy=0;" edge="1" parent="Er5Ku43OcecF_kd8UWUg-1" source="Er5Ku43OcecF_kd8UWUg-14" target="Er5Ku43OcecF_kd8UWUg-12">
          <mxGeometry relative="1" as="geometry">
            <mxPoint x="220.00427124746193" y="356.06427124746193" as="sourcePoint" />
            <mxPoint x="250.40746921255823" y="403.930686396416" as="targetPoint" />
          </mxGeometry>
        </mxCell>
        <mxCell id="Er5Ku43OcecF_kd8UWUg-25" value="" style="endArrow=classic;html=1;exitX=0;exitY=1;exitDx=0;exitDy=0;" edge="1" parent="Er5Ku43OcecF_kd8UWUg-1" source="Er5Ku43OcecF_kd8UWUg-7" target="Er5Ku43OcecF_kd8UWUg-12">
          <mxGeometry relative="1" as="geometry">
            <mxPoint x="390.00427124746193" y="218.2842712474619" as="sourcePoint" />
            <mxPoint x="420.4074692125582" y="266.15068639641595" as="targetPoint" />
          </mxGeometry>
        </mxCell>
        <mxCell id="Er5Ku43OcecF_kd8UWUg-28" value="" style="endArrow=classic;html=1;exitX=1;exitY=0.5;exitDx=0;exitDy=0;entryX=0;entryY=1;entryDx=0;entryDy=0;" edge="1" parent="Er5Ku43OcecF_kd8UWUg-1" source="Er5Ku43OcecF_kd8UWUg-14" target="Er5Ku43OcecF_kd8UWUg-13">
          <mxGeometry relative="1" as="geometry">
            <mxPoint x="321.71572875253787" y="361.71572875253787" as="sourcePoint" />
            <mxPoint x="286.06682893783295" y="320.3400795833795" as="targetPoint" />
          </mxGeometry>
        </mxCell>
        <mxCell id="Er5Ku43OcecF_kd8UWUg-29" value="激活" style="edgeLabel;resizable=0;html=1;align=center;verticalAlign=middle;" connectable="0" vertex="1" parent="Er5Ku43OcecF_kd8UWUg-28">
          <mxGeometry relative="1" as="geometry" />
        </mxCell>
        <mxCell id="Er5Ku43OcecF_kd8UWUg-30" value="" style="endArrow=classic;html=1;exitX=0;exitY=0.5;exitDx=0;exitDy=0;entryX=1;entryY=0;entryDx=0;entryDy=0;" edge="1" parent="Er5Ku43OcecF_kd8UWUg-1" source="Er5Ku43OcecF_kd8UWUg-13" target="Er5Ku43OcecF_kd8UWUg-14">
          <mxGeometry relative="1" as="geometry">
            <mxPoint x="331.71572875253787" y="371.71572875253787" as="sourcePoint" />
            <mxPoint x="296.06682893783295" y="330.3400795833795" as="targetPoint" />
          </mxGeometry>
        </mxCell>
        <mxCell id="Er5Ku43OcecF_kd8UWUg-31" value="挂起" style="edgeLabel;resizable=0;html=1;align=center;verticalAlign=middle;" connectable="0" vertex="1" parent="Er5Ku43OcecF_kd8UWUg-30">
          <mxGeometry relative="1" as="geometry" />
        </mxCell>
        <mxCell id="Er5Ku43OcecF_kd8UWUg-34" value="" style="endArrow=classic;html=1;entryX=1;entryY=1;entryDx=0;entryDy=0;" edge="1" parent="Er5Ku43OcecF_kd8UWUg-1" source="Er5Ku43OcecF_kd8UWUg-13" target="Er5Ku43OcecF_kd8UWUg-5">
          <mxGeometry width="50" height="50" relative="1" as="geometry">
            <mxPoint x="390" y="290" as="sourcePoint" />
            <mxPoint x="440" y="240" as="targetPoint" />
          </mxGeometry>
        </mxCell>
        <mxCell id="Er5Ku43OcecF_kd8UWUg-35" value="" style="endArrow=classic;html=1;exitX=1;exitY=0.5;exitDx=0;exitDy=0;entryX=0;entryY=0.5;entryDx=0;entryDy=0;" edge="1" parent="Er5Ku43OcecF_kd8UWUg-1" source="Er5Ku43OcecF_kd8UWUg-4" target="Er5Ku43OcecF_kd8UWUg-5">
          <mxGeometry width="50" height="50" relative="1" as="geometry">
            <mxPoint x="390" y="290" as="sourcePoint" />
            <mxPoint x="440" y="240" as="targetPoint" />
          </mxGeometry>
        </mxCell>
        <mxCell id="Er5Ku43OcecF_kd8UWUg-38" value="" style="endArrow=classic;html=1;exitX=1;exitY=0;exitDx=0;exitDy=0;entryX=0.5;entryY=1;entryDx=0;entryDy=0;" edge="1" parent="Er5Ku43OcecF_kd8UWUg-1" source="Er5Ku43OcecF_kd8UWUg-12" target="Er5Ku43OcecF_kd8UWUg-5">
          <mxGeometry relative="1" as="geometry">
            <mxPoint x="251.72" y="260" as="sourcePoint" />
            <mxPoint x="353.4357287525379" y="228.28427124746213" as="targetPoint" />
          </mxGeometry>
        </mxCell>
        <mxCell id="Er5Ku43OcecF_kd8UWUg-39" value="激活" style="edgeLabel;resizable=0;html=1;align=center;verticalAlign=middle;" connectable="0" vertex="1" parent="Er5Ku43OcecF_kd8UWUg-38">
          <mxGeometry relative="1" as="geometry" />
        </mxCell>
        <mxCell id="Er5Ku43OcecF_kd8UWUg-40" value="" style="endArrow=classic;html=1;exitX=0;exitY=1;exitDx=0;exitDy=0;entryX=0.5;entryY=0;entryDx=0;entryDy=0;" edge="1" parent="Er5Ku43OcecF_kd8UWUg-1" source="Er5Ku43OcecF_kd8UWUg-5" target="Er5Ku43OcecF_kd8UWUg-12">
          <mxGeometry relative="1" as="geometry">
            <mxPoint x="341.72" y="200" as="sourcePoint" />
            <mxPoint x="240.00427124746213" y="231.71572875253787" as="targetPoint" />
          </mxGeometry>
        </mxCell>
        <mxCell id="Er5Ku43OcecF_kd8UWUg-41" value="挂起" style="edgeLabel;resizable=0;html=1;align=center;verticalAlign=middle;" connectable="0" vertex="1" parent="Er5Ku43OcecF_kd8UWUg-40">
          <mxGeometry relative="1" as="geometry" />
        </mxCell>
        <mxCell id="Er5Ku43OcecF_kd8UWUg-42" value="" style="endArrow=classic;html=1;exitX=0.5;exitY=1;exitDx=0;exitDy=0;entryX=0.5;entryY=0;entryDx=0;entryDy=0;" edge="1" parent="Er5Ku43OcecF_kd8UWUg-1" source="Er5Ku43OcecF_kd8UWUg-7" target="Er5Ku43OcecF_kd8UWUg-13">
          <mxGeometry width="50" height="50" relative="1" as="geometry">
            <mxPoint x="390" y="290" as="sourcePoint" />
            <mxPoint x="440" y="240" as="targetPoint" />
          </mxGeometry>
        </mxCell>
      </root>
    </mxGraphModel>
  </diagram>
</mxfile>
